<svg width="76" height="111" viewBox="0 0 76 111" fill="none" xmlns="http://www.w3.org/2000/svg">
<g id="logo" clip-path="url(#clip0_710_6323)">
<path id="Vector" d="M36.7202 42.8089C36.7202 42.8089 30.8016 44.4623 27.7527 46.9201L23.9415 46.8754C23.9415 46.8754 27.2146 47.4116 27.394 48.0819C27.5733 48.7522 28.0217 54.7401 28.0217 54.7401C28.0217 54.7401 26.4524 57.2425 24.9279 59.3874C26.542 57.6 28.6046 55.9019 28.7839 55.8126C29.0978 55.7232 37.3928 57.4213 37.5721 57.6447C37.7066 57.8234 39.9485 61.9345 41.0695 64.437C40.4417 62.6048 39.3656 59.3428 39.0518 58.4937C38.5137 57.0638 38.6482 57.1978 39.0518 56.4382C39.4105 55.6785 41.8317 52.6399 43.4459 49.914C43.5804 49.6906 43.5356 49.3778 43.3562 49.199C41.8766 47.7244 37.5721 43.2558 37.5721 43.0771C37.5273 42.8536 39.4105 39.9044 39.9485 39.6809C41.9662 38.8766 45.8223 39.6809 46.8087 39.815C43.7597 38.5191 40.5314 37.9382 37.3031 37.9829L38.6034 39.0553C38.8276 39.1894 38.9173 39.5022 38.7379 39.7256L36.7202 42.8089ZM38.0653 55.7232C37.8412 55.8573 36.9892 55.6338 36.9892 55.5445C37.3479 55.3657 38.9173 54.2932 38.9173 54.2932C38.9173 54.2932 38.2895 55.5891 38.0653 55.7232ZM41.9662 49.5565L39.1415 53.6676L40.5763 49.6906C38.424 48.5288 30.8465 50.2268 30.6223 52.9974L36.6754 55.4551L29.5462 54.0251C29.4117 53.2655 29.053 49.1097 29.0081 47.8138C29.0081 47.5903 29.0978 47.3669 29.2771 47.2329C30.0842 46.6073 32.5951 44.9092 36.0028 44.1495C36.227 44.1048 36.496 44.1495 36.6754 44.3283L41.9662 49.5565ZM41.9662 49.5565C41.9662 49.5565 41.9214 49.5118 41.8766 49.4672C41.9214 49.5565 41.9662 49.5565 41.9662 49.5565ZM57.9733 49.6459C56.4937 47.635 54.7898 44.7751 50.1715 42.0493C50.6199 42.3174 52.3238 43.7027 54.0276 46.6966C54.3415 47.2329 52.6376 50.2268 52.5031 50.3609C52.4134 50.4502 47.3468 49.914 44.9255 49.6906C47.3916 50.2268 52.0547 50.9865 52.4583 51.478C54.745 54.3379 56.2695 59.2534 56.135 60.1918C56.0453 60.9068 51.8305 66.8947 51.158 67.1181C50.1267 67.4756 42.3698 66.5819 41.6972 66.2244C41.6972 66.2691 41.6972 66.2691 41.6972 66.2691C41.742 66.6713 36.6305 73.0614 36.6305 73.0614C36.3615 73.3742 36.0028 73.5529 35.9131 73.6423C36.8547 75.1616 40.8901 78.6471 41.9214 79.5408C40.083 78.6918 37.2583 76.949 35.6441 75.8319C34.8819 75.3403 34.0299 75.0275 33.1332 74.9829C30.6223 74.8488 27.8423 74.0445 27.394 74.1785C26.8559 74.3573 23.9863 76.2341 23.9863 76.2341C23.9863 75.7872 25.7798 74.0445 26.6317 73.1954C26.8559 72.972 27.1698 72.8826 27.4836 72.9273C29.6807 73.2848 31.8329 73.5529 33.3574 73.4635C31.519 73.1507 29.4565 72.5698 28.2907 72.2123C27.7078 72.0336 27.2594 71.6761 26.9456 71.1399C25.5108 68.6374 24.2105 65.8222 23.4482 64.0348C23.1792 63.3645 23.1344 62.6495 23.4034 61.9792L23.7173 61.1302L23.2689 61.7111C22.9102 62.1133 22.3721 62.3367 21.8341 62.292C20.3096 62.1133 17.7987 61.7558 17.709 61.7111C17.709 61.7111 17.6642 61.5771 17.5745 61.3536C15.1084 52.2377 21.5202 46.1157 21.5202 46.1157C21.0718 46.9201 20.4889 47.9925 20.0406 49.199C20.6235 48.4841 21.0718 47.9031 21.8789 47.3669C22.5066 46.9647 22.955 46.3391 23.224 45.6688C23.4931 44.9092 23.9863 43.8814 24.614 43.0771C25.3314 42.1833 26.4075 40.9768 29.2323 39.815C25.1072 41.1556 22.2825 43.3452 19.4128 47.1435C11.7904 57.2872 13.9875 71.6761 24.2553 79.3621C34.5232 87.0034 49.0058 84.9925 56.6282 74.8935C62.2777 67.2969 62.5019 57.3766 57.9733 49.6459ZM16.2294 64.9732C16.2294 64.9732 15.3326 60.9961 15.9603 56.6616C15.9603 56.6616 16.05 60.594 16.8122 62.6942L16.2294 64.9732ZM17.171 65.5094L18.0229 62.873L21.9686 63.5879C21.9686 63.5879 23.3586 67.2522 25.2866 70.9611C25.2866 70.9611 22.1031 69.978 19.2783 65.6882C19.0541 65.3754 18.8748 65.0626 18.7403 64.7498C18.5609 64.437 18.1574 64.3476 17.8884 64.6157L17.171 65.5094ZM18.8299 71.0058C22.686 75.2063 25.6004 78.6471 25.9143 78.9599C20.0406 75.4744 18.8299 71.0058 18.8299 71.0058ZM39.5898 75.9213L37.4376 73.7317C37.4376 73.7317 41.9662 67.8331 42.3698 67.6097C45.912 68.1012 50.7993 68.4587 50.7993 68.4587C50.7993 68.4587 48.2435 70.6036 43.6252 72.3017C41.9662 72.9273 40.8005 73.3295 39.8589 73.5529C39.3208 73.687 39.0069 74.2679 39.1863 74.7594L39.5898 75.9213ZM50.0819 78.6471C48.5125 79.8536 45.7326 80.8814 45.1049 80.8814C44.253 80.8814 43.0872 80.3005 43.0872 80.3005C47.6158 79.5855 51.2925 77.4853 51.2925 77.4853C51.0683 77.8428 50.6199 78.2449 50.0819 78.6471ZM53.7586 50.9865C53.8034 50.8077 54.9243 47.9478 54.9243 47.9478C55.1037 47.9478 56.5833 48.9309 57.1662 50.1821C57.1662 50.1821 56.404 49.0203 55.5521 49.065C55.3279 49.065 55.1934 49.3778 55.1934 49.78C55.1934 50.4056 55.6417 51.7461 56.3591 53.3995C57.2111 55.3657 57.8836 57.8234 58.2423 58.4044C58.6907 59.03 60.0807 59.9237 60.0807 59.9237L57.7491 59.5662C57.3904 59.5215 57.1214 59.2534 57.0317 58.9406C55.9556 54.7401 53.7137 51.1205 53.7586 50.9865ZM58.2872 61.6664C57.9285 61.8005 57.6146 62.1133 57.3904 62.4708C55.3727 65.9563 53.5792 67.8778 53.3102 68.4587C52.9515 69.3524 52.0996 74.3573 51.5167 76.3681C51.6063 74.8041 52.0996 68.4587 52.2341 68.0565C52.4134 67.565 57.1662 60.7727 57.1662 60.7727C57.1662 60.728 60.0358 60.7727 60.0358 60.7727C60.0358 60.7727 59.1391 61.3089 58.2872 61.6664Z" fill="#1C1C1C"/>
<path id="Vector_2" fill-rule="evenodd" clip-rule="evenodd" d="M60.3066 8.44565L61.3378 11.5737H64.6558L61.9656 13.4952L62.9968 16.6232L60.3514 14.7017L57.6612 16.6232L58.6924 13.4952L56.0022 11.5737H59.3202L60.3066 8.44565ZM15.693 8.44565L16.7243 11.5737H20.0423L17.352 13.4952L18.3833 16.6232L15.693 14.657L13.0027 16.5785L14.034 13.4505L11.3438 11.529H14.6617L15.693 8.44565ZM38.5603 0L39.5915 3.12802H42.9095L40.2193 5.04952L41.2505 8.17754L38.5603 6.25604L35.87 8.17754L36.9013 5.04952L34.211 3.12802H37.529L38.5603 0Z" fill="#1C1C1C"/>
<path id="Vector_3" fill-rule="evenodd" clip-rule="evenodd" d="M54.9258 20.377C61.2927 22.7006 68.0632 23.9965 74.9683 24.0859L75.9995 25.1137V41.3794L54.9258 20.377Z" fill="#F4DDCC"/>
<path id="Vector_4" fill-rule="evenodd" clip-rule="evenodd" d="M28.0703 17.3381C31.5677 15.5507 34.8408 13.4057 37.9346 10.9033L75.957 48.797V65.0627L64.2095 53.355C62.9092 48.8864 60.488 44.9094 57.3045 41.692C54.0762 38.4746 50.0857 36.1062 45.6019 34.8103L28.0703 17.3381Z" fill="#E9BB99"/>
<path id="Vector_5" fill-rule="evenodd" clip-rule="evenodd" d="M65.2842 61.8008L76.0004 72.4807V80.6136C75.1485 82.4457 74.2069 84.2332 73.1756 85.9312L61.6523 74.4469C63.8494 70.738 65.1497 66.4034 65.2842 61.8008Z" fill="#DF9A66"/>
<path id="Vector_6" fill-rule="evenodd" clip-rule="evenodd" d="M10.2656 23.2817C14.6149 22.5667 18.8745 21.3602 22.9995 19.6621L37.1234 33.7382C32.5052 33.8723 28.1559 35.1681 24.3895 37.3578L10.2656 23.2817Z" fill="#DF9A66"/>
<path id="Vector_7" fill-rule="evenodd" clip-rule="evenodd" d="M58.5586 78.8262L70.1716 90.3998C67.84 93.4832 65.2394 96.3431 62.325 98.8455L49.1875 85.7525C52.2365 84.4119 54.9716 82.4904 57.2583 80.1668C57.7515 79.7199 58.1551 79.273 58.5586 78.8262Z" fill="#D47833"/>
<path id="Vector_8" fill-rule="evenodd" clip-rule="evenodd" d="M0 36.7321V24.086C1.21062 24.086 2.3764 24.0413 3.58702 23.9966L20.0873 40.441C19.5941 40.8432 19.1457 41.2901 18.7422 41.6922C16.4106 44.0159 14.5274 46.7418 13.1375 49.7357L0 36.7321Z" fill="#D47833"/>
<path id="Vector_9" fill-rule="evenodd" clip-rule="evenodd" d="M43.5824 87.5846L58.1995 102.152C54.9263 104.476 51.429 106.442 47.7075 107.961L23.9883 84.3225C28.0685 86.7802 32.8662 88.1655 38.0225 88.1655C39.9057 88.1655 41.7889 87.9421 43.5824 87.5846Z" fill="#C95600"/>
<path id="Vector_10" fill-rule="evenodd" clip-rule="evenodd" d="M0 60.4154V44.105L11.2543 55.3212C10.8956 57.1086 10.6714 58.9854 10.6714 60.9069C10.6714 66.0011 12.0614 70.7825 14.5274 74.8489L0 60.4154Z" fill="#C95600"/>
<path id="Vector_11" fill-rule="evenodd" clip-rule="evenodd" d="M0 67.7886L42.2372 109.883C40.8472 110.285 39.4124 110.642 37.9776 110.955C31.0277 109.481 24.5711 106.71 18.8319 102.867L4.43894 88.4782C2.77994 86.0205 1.30029 83.384 0 80.6581V67.7886Z" fill="#974000"/>
</g>
<defs>
<clipPath id="clip0_710_6323">
<rect width="76" height="111" fill="white"/>
</clipPath>
</defs>
</svg>
